<?xml version="1.0" encoding="UTF-8"?><svg xmlns="http://www.w3.org/2000/svg" xmlns:xlink="http://www.w3.org/1999/xlink" height="701.8" preserveAspectRatio="xMidYMid meet" version="1.0" viewBox="-0.7 -5.0 553.1 701.8" width="553.1" zoomAndPan="magnify"><g id="change1_1"><path d="M539.4,119.4c-8.2-7.4-19.8-9.7-30.1-12.8c-8.3-2.4-17.1-2.9-25-7.1c-3.3-1.7-7.3-2.8-9.6-5.9c5.5-5.8,14.1-3.7,20.9-2 c6.3,1.7,12.8,2.9,19,5.1c5.5,1.9,10,5.9,15.6,7.6c8.2,1.8,8.1-8.5,7.2-14c-1.4-9.6-8-17.1-14.9-23.4c-4.8-5.5-10.6-10.5-17.7-12.6 c-8.9-2.5-16.8-0.6-23.1,1.4c-6,1.9-10.5,3.7-13.1,1.7l0,0.1c-0.1-0.3-0.2-0.6-0.3-0.8c0-0.1,0-0.1,0-0.2c-0.3-4,2.9-7.6,5.4-10.4 c3.1-2.5,7.2-3.3,10.8-4.8c4.5-2.2,13.4-0.2,13.8-7.1c-2.3-13-17.7-27.9-29.8-32.4C450-5,421.3,8.4,409.1,22.6 c-19.3,22.7-22.2,48-18.6,76.7c0.8,8.7,1.2,17.3,1.7,26.1c1.7,20.3,5.1,40.4,7,60.7c1.3,16.3,3.9,32.6,4.7,48.9 c0.6,11.6,0.3,23.2,0.9,34.8c0.5,8.2,1.3,16.4,1,24.7c-0.2,5.7,0,11.5-0.9,17.2c-0.4,1.2-0.4,2.5,0.2,3.6c1.8,3.3,7.2,1.9,7.1-1.9 c2.2-15.9,0.6-32.1-0.1-48.1c0.1-47-7.6-93.5-12.4-140.1c-0.6-29-9.6-60.7,7.6-86.9c9.8-19,31.4-30.3,52.4-31 c13.5,1.9,24.3,13.4,30.4,25c-7.3,1.4-15,3.5-21.1,7.9c-4.4,4.2-8.5,10-8.2,16.4c0.7,11.2,14.4,10.5,21.9,6.5 c13.4-4.9,25.7-2.3,34.5,9.2c7,6.2,13.8,14.1,13.1,24.1c-7.7-4.5-15.8-8.3-24.7-9.9c-7.6-1.7-15.3-4.7-23.2-4.1 c-5.7,0.7-11.4,3.1-14.6,8c-3.6,8.6,7.6,13.4,13.9,16.2c12.1,5.6,25.9,6.2,38.3,11.1c7.8,2.5,16.1,6.3,19.5,14.4 c5.3,12,8.5,26.8,1.2,38.7c-5.6-9.2-14.8-13.9-23.4-19.9c-9.1-5.9-17.5-12.7-27.6-16.8c-7.1-3-21.6-8.4-27.1-0.8 c-3.7,7.5,6.4,12.8,11.2,16.8c7.8,5.2,15.9,9.8,23.4,15.5c10.7,6.4,20.6,14.5,27.4,25.1c7.2,10.6,12.5,25.6,3.9,36.9 c-4.6-10.2-13.1-17.8-19.7-26.7c-6.4-9.6-14-18.4-23.3-25.4c-9.1-7.6-20.1-13.7-32.3-12.3c-5.9,1.1-4.4,8.7-1.8,12.3 c1.8,2.4,4.5,3.6,7.1,5c9.8,4.9,18.8,11.9,24.7,21.2c5,6.7,10,13.8,12.6,21.9c5.5,14.8,4,31.4-2,45.9 c-3.9-11.5-10.8-21.5-17.6-31.5c-7.5-11.1-14.2-23.4-25.6-31.4c-4.6-4.1-15-9.1-18-0.9c-1.9,8.3,4.2,15.6,7.9,22.5 c8.6,14.4,22.1,25.7,26.8,42.3c4.6,15.8,9.4,35.6-6.2,46.9c-2.8-8.7-5.3-17.5-9-25.9c-2.5-5.2-6-9.9-9.3-14.6 c-3.3-5.7-6.7-12-13.6-13.7c-9.9-3.2-10.7,6.2-8.2,13.3c1.4,4.5,4.7,7.9,6.9,12c1.6,3.6,2.9,7.4,3.7,11.3 c3,19.5-14.1,33.9-26.9,45.9c-6.5-5.9-11.3-13.2-16.3-20.4c-6.5-8.8,0.8-19.1,5.1-27.1c3-4.9,4.7-13.3-1.9-16 c-9.6-3.9-16.1,6.1-20,13.4c-4.8,8.3-8.6,17.5-8.7,27.2c-5.4-6.6-14.6-12-14.5-21.5c-0.1-7.6,3.2-14.8,6.7-21.3 c5-6.8,10.6-13.2,14.6-20.6c3.9-7.4,14-23.9,2.5-28.9c-7.4-2.4-15,7.8-19.8,12.5c-10.4,11.5-16.7,25.6-22.1,40 c-3.4,7.4-3.2,15.7-4.5,23.6c-24.6-13.8-20.5-26.4-7.3-47.7c10.8-15.8,21.5-31.7,34.8-45.6c3.4-4.2,6.8-8.7,7.8-14.1 c2.7-8.2-3.3-13.4-11.1-10.1c-29.3,14.7-47.7,44.4-58.5,74.4c-9.2-11.5-10.5-27-8.8-41.1c3.6-12.9,13.7-23.1,23.2-32.1 c12.6-11.8,27.8-20.2,41.7-30.2c6.1-5,21.8-23.5,7.5-27.1c-19.1-1.4-46.7,22.1-59.4,35.3c-9.8,9.8-20.1,19.6-27.1,31.6 c-3.3-10.5-6.6-22-3.1-32.9c8.9-23.3,34.3-33.9,56.3-41.3c8.2-4.2,34.6-19.8,17.8-28.4c-10.4-3.5-22.1-1.3-32,2.6 c-21.3,7.5-37.9,23.8-52.1,40.8c-0.7-10.1,2.1-20.2,6.3-29.4c9.3-18.1,32-21,49.6-26.3c8.5-2.3,36.4-11.5,20.5-22.4 c-12.3-6.7-27.6-4.3-40.6-1.2c8.5-12.7,17.7-26.8,32.3-32.7c16.2-3.7,35.8-3.3,49.2,7.7c3.9,3.6,7.8,7.2,11.6,11 c2.1,2,3.5,5.2,6.9,3.3c4.6-3.2-0.5-7.7-3.2-10.2c-7.1-6.8-14.1-14.4-23.7-17.6c-16.6-5-37-6.4-52.2,3.2 c-12.5,9.3-21.4,21.8-29.6,35c-2.2,3.3-6.5,9.5-0.2,11c3.2,0,6.1-2,9.1-2.9c11.7-3.2,25.8-5.9,37,0.1c-6.3,5.2-14.5,6.8-22.1,9.3 c-11.2,2.9-22.6,5.9-32.9,11.3c-13.3,6.1-21,19.4-23.7,33.3c-2.2,8.6-2.7,17.4-0.5,26.1c1.2,5.7,6.6,4.7,8.7,0.2 c3-4,6.4-7.8,9.7-11.6c11.2-11.8,23.5-23.4,38.8-29.4c9.5-4.1,20.7-7.5,30.9-3.9c-4.3,6.1-11.1,10-17.4,13.8c-7.2,3-14.9,5-22,8.3 c-36.4,18.6-51.5,41.5-34.1,81.3c0.8,3.1,4.2,6.1,7.2,3.7c3-3.6,3.7-8.7,6.7-12.3c10.9-14.2,23.8-26.7,37.1-38.7 c10.9-8.3,24.4-18.9,38.4-20.3c-6.3,16.3-24.6,21.9-37.2,32.3c-16,12.1-32.7,26.1-39.9,45.4c-2.4,9.7-1.8,20.2-0.1,30 c1.6,7.6,5.3,14.5,9.9,20.7c1.2,1.7,2.2,3.6,3.2,5.4c3.1,3.8,7.2,0.4,7.7-3.4c10.1-29.7,27.6-61.2,57.1-75 c-1.8,12.5-17.1,21.5-23.4,32.8c-15.2,22.2-49.6,58.2-15.8,79.8c6.1,3.5,16.7,14.6,18,1.1c1.1-5.7,1.3-11.4,2.2-17.1 c1.2-5.3,3.7-10.3,5.7-15.3c5.8-15.3,15.1-30.2,28.8-39.5c0.9,9.3-10.2,24.3-15.9,32c-7.1,8.2-11.9,18.8-12.8,29.6 c-1.1,9.6,4.9,17.3,11.5,23.4c3.9,3.3,12.3,16.1,17.7,10.2c2-3.6-0.4-8,0.4-12c0.5-6.3,2.7-12.3,5.5-17.9c2.6-4,6.9-15.6,12.7-13.9 c-0.3,4.8-3.9,8.6-5.8,12.8c-2.6,4.9-4.7,10.5-4.6,16.1c-0.2,6.5,3.9,11.6,7.5,16.6c2.8,4.6,6.1,8.8,10,12.6 c2.3,2.5,4.6,5.3,7.8,6.7c0.4,0.1,0.8,0.2,1.2,0.2c3.4,0,5.5-4.1,8.1-6.1c12.1-10.2,23.4-22.8,26.3-38.8c1.3-9.1-1.6-18.6-6.1-26.6 c-2.6-3.7-5.6-7.4-5.8-12.1c5,1.5,6.6,6.8,9.3,10.7c4.4,6.1,8.8,12.3,11.2,19.4c1.5,4.9,3.1,9.8,4.9,14.6c1.7,3.9,1.2,9.8,5.3,12.2 c3.8,1.5,5.5-3.2,8.5-4.7c11.4-8.7,14.7-23.3,11.9-36.8c-1.5-10.9-4.6-21.6-9.8-31.4c-6.9-11.6-17-21.2-23.5-33.2 c-2-4-5.2-7.6-5.4-12.3c12.7,5.3,20.1,17.8,27.3,28.8c3.8,5.5,8,11.9,11.7,17.6c4.2,6,6.6,13.9,9.6,20.6c1.7,4.9,6.8,8.7,9.7,2.5 c14.8-31.4,10.2-58.2-11.4-84.7c-5.1-6.8-11.8-12.3-19-16.6c-3.3-2.4-7.9-3.4-10.6-6.5c15.8-0.2,34.5,19,43.2,31.3 c5.4,8.2,12.6,15.1,18.2,23.2c1.9,3.1,3.6,6.4,5.1,9.8c0.7,2.5,3,4.7,5.7,3.5c18.8-18,10.6-41.5-4-59.2c-4.9-5-9.8-10.2-15.6-14.2 c-5.7-3.7-11.2-7.5-16.8-11.4c-7.9-5.2-16.5-9.6-23.2-16.4c16.5-0.1,29.9,11.4,43.1,19.9c10,6.8,16.2,9.7,23.3,20.1 c10.2,9.3,16.5-13.7,16.3-21C552.1,143,548.7,128.9,539.4,119.4z" fill="inherit"/><path d="M295.2,345.2c0.8,0.8,1.7,1.1,2.6,1.1c2.9,0,5.4-3.7,2.8-6.4c-2.6-2.3-5.6-5.4-9.1-6.1c-2.5,0-4.3,2.5-3.7,4.9 C288.9,342,293.4,342.3,295.2,345.2z" fill="inherit"/><path d="M317.2,318.8c1.8-2.7-1.2-6.5-4.2-5.5c-1.6,0.4-2.3,1.8-3,3.1c-3.7,4.1-6.2,9.1-7,14.6c-1.9,12.2,2.5,24.5,10.2,33.9 c4.6,7.9,7.5,16.7,13,24.1c8.7,13.2,17.7,26.2,25.5,40.1c13,21.1,22.6,44.1,29.1,68.1c5.5,15.8,9.5,32,12.2,48.4 c0.6,1.5,2,2.2,3.4,2.2c1.4,0,2.8-0.7,3.4-2.1c0.6-1.1,0.7-2.5,0.1-3.7c-0.4-2.1-0.8-4.3-1.1-6.4c-1.6-10.6-4.5-21-7.8-31.3 c-4.9-15.1-9-30.6-15.2-45.3c-6.4-14.9-14.6-28.8-22.9-42.7c-9.9-17.5-23.4-32.8-31.1-51.5c-2.2-4.6-5.9-8.2-8.1-12.8 c-4-8.3-5.3-18.5-1-27C314.2,323,316,321.1,317.2,318.8z" fill="inherit"/><path d="M173.6,324.7c-2.6-9.1-4.9-18.5-4.5-28c4.4,3.4,6.6,9.2,9.4,13.9c2.2,4.6,3.1,9.6,4.6,14.4c6.3,21.8,6.6,45.3,3.7,67.7 c-1.3,6.7-3.6,13.2-5.7,19.8c-3.3,6,0.7,9.6,6.7,7.1c17.2-7.3,32.3-21,40.3-38c8.1-19.6,10.5-42.5,3-62.6 c-4.1-11.2-19.5-24.4-18.2-36.7c8.7,1.5,14.8,9.4,19.7,16.1c8.1,11.8,12.5,25.8,13.9,39.9c0.4,8.8-0.1,17.3,0.7,26.1 c-0.3,4.7,0.9,10.2,6.8,8c12.3-5.8,20-15.7,25-28.1c5.7-14.3,9.8-30.2,5.6-45.4c-3.3-12.3-13.9-20.6-21.7-30 c-4.5-6-12.9-10.3-14.6-18c5.4-2.8,11.3,1,16.4,2.9c1.3,0.9,2.7,2,4.4,1.4c2-0.5,3.1-2.6,2.6-4.6c-0.6-2.2-2.9-3.1-4.8-4 c-3.8-1.6-7.7-3.3-11.8-4c-14.7-1.5-18.5,9.2-9.3,19.6c5.5,5.6,11.1,11.1,16.2,17.1c6.3,6.9,13.9,14,15.7,23.6 c2.8,11.7-0.4,23.5-4.1,34.6c-3.9,10.2-9.1,20.5-19,26.1c-0.9-9.4,0.1-18.9-0.9-28.3c-2.2-17-8.4-33.7-19.4-46.9 c-5-5.5-10.7-11.1-18.1-13.1c-11.4-3-13.1,9.1-9.3,17.1c4,11.3,13.2,19.5,17.7,30.7c6.1,18.3,3.8,38.9-3.8,56.4 c-6.4,13.4-18.3,24.1-31.2,31.2c4.5-12.3,6.2-25.1,6.3-38.1c0.3-17.1-0.9-34.4-6-50.7c-1.7-6-3-11.8-6.2-17.2 c-3.4-5.6-6.3-13.1-13.1-15.2c-14-2.5-8.2,18-7.2,25.8c4.8,20.9,12.6,43.1,5.8,64.5c-5.7,14.6-17.3,27.7-32.5,32.5 c2.3-7.9,4.5-15.9,6.5-23.9c1-9.3,0.2-18.7-0.7-28c-1.3-7.7-1-16.8-6.3-23.1c-3.9-4.4-12.5-4.7-15.1,1.2c-1.3,3.5-1.5,7.2-2,10.9 c-1.4,16.5-2.5,33.9-11.8,48.2c-19,25.9-50,32.1-80.1,25.9c-0.5-6.3-2.5-12.3-3.7-18.5c-2.9-13.6-4-27.8-5.1-41.7 c-1.2-23.2,2.1-44.2,24.2-56.3c10.7-6.7,23.7-9.9,35.3-14.9c7.9-2.7,22.5-8.5,17.3-19.1c-7.1-9.9-24.3-4.5-34.6-3.8 c-11.9,2-22.2,8.2-32.7,13.7c-7.1,4.1-14.7,7.7-20,14.1c-1.7-22.5,0.1-41.8,22.6-52.6c9.2-4.2,19.4-5.3,29.1-7.8 c5.6-1.2,11.4-1,17.1-0.9c5.8,0.2,11.6,0.4,17.3-0.9c11.3-1.9,22.7-12.6,9.4-21.3c-8.1-5.8-18.4-5.3-27.9-4.7 c-9.9,0.4-19.8,1.6-29.6,3.4c-9.7,1.7-19.5,2.2-29.2,4.4c1.1-14.1,11-27.7,24.5-32.3c12.2-4.1,24.9-8.3,37.9-7 c5.2,0.2,9.8,2.4,14.5,4.3c9.6,3,18.9,8,29.1,8.2c20.1-2.6,0.8-30.9-10-34.5c-13.4-5.6-28.2-8.4-42.9-7.4c2.3-4.9,4.9-9,8.4-13.3 c5.1-4.8,10.9-9.1,17.1-12.5c9-4.3,18.1-8.6,27.8-10.9c13.1-3.8,27.5-5.1,40.7-1.2c6.5,2.2,12.4,6,17.8,10.1 c3.5,3.4,5.9,7.7,8.2,11.9c8.1,15.4,5.2,39.4-2.5,54.6c-2.8,5.3-5.6,10.7-9.4,15.3c-5.9,7.3-13.3,13.6-19.5,20.8 c-13,13.4-24.2,28.5-34.5,44c-11.1,15.8-19.7,32.7-28.3,50C90.5,328.6,84,340.8,79.9,353c-1.3,4.1-6.6,17.8-1.8,20.8 c3,1.9,7.1-1.8,5.6-4.9c2.3-17.1,11.7-32.3,18.5-47.9c11.3-23.4,24.7-46.5,40.4-67.4c9.1-11.8,18.7-23,29.1-33.7 c8.6-8,16.3-16.9,21.4-27.5c6.3-11.2,9.1-24.2,9.1-37.1c0.7-10.1-1.8-20.1-6.8-28.8c-5.4-11-15.9-18.3-27.2-22.7 c-19.1-6.7-40.1-2.5-58.7,4.1c-17.6,7-35.9,15.9-44.8,33.8c-1.6,3.6-5.4,9.4-3,13.2c1.2,1.7,3.5,1.7,5.3,1.3 c3.1-0.7,6.2-0.6,9.4-0.6c9.9-0.1,19.7,2.1,29,5.3c9.4,2.7,17.1,11.4,18.6,21.1c-3.9,3-19.5-4.8-24.7-6c-12.8-6-25.4-7.9-39.4-4.6 c-10.2,2.6-22.3,5.1-31.4,11.3c-11.9,8.6-19.8,22.9-19.4,37.7c0.1,4,4,5.6,7.4,4.1c3.5-0.6,6.9-1.2,10.4-1.9 c3.5-0.7,7-1.1,10.6-1.3c7.6-0.7,15-2.7,22.5-3.5c11.2-0.7,34.7-5.4,41.9,4.8c-6.4,6.7-16.3,6.2-26,5.8c-5.8-0.3-11.5-0.5-16.3,0.7 c-11.5,2.8-23.7,4.1-34.3,9.7c-22,11.5-26,30.2-25.3,53.3c0.2,12.5,4.4,21.1,15,8.3c4.7-4.7,11-7.6,16.7-11 c11.9-6.6,24.3-13.3,38.3-13.8c6.1-0.2,13.5-2.9,18.8,1.2c-1.9,5.6-14.1,8-19.3,10.4c-3.5,1.4-6.9,2.9-10.5,4.2 c-7.3,2.6-14.6,5.2-21,9.7c-6.4,4.3-13.2,8.5-17.2,15.2c-15.5,23.5-9.4,55-6.2,81.4c1.2,8.9,4.2,17.5,5.2,26.4 c-0.6,7.2,4,6.4,9.4,7.1c5.2,0.8,10.2,2,15.5,1.9c1.6,0.1,3.2,0.1,4.8,0.1c25.8,0,52.4-12.1,66-34.6c5.7-10.1,8.4-21.6,9.7-33.1 c0.9-8,1-16.1,2.8-24c6.7-1.9,6.9,22.1,7.8,26.7c0.3,5.7,0.5,11.5,0.3,17.2c-2,9.2-4.7,18.2-7.4,27.2c-0.6,2.1-2.1,4.1-1.9,6.3 c0.7,4.2,5.3,3.9,8.3,2.2c3.5-1.7,7.2-2.8,10.7-4.3c5.5-2.9,10.6-6.8,15-11.1c12.8-11.6,18.8-28.8,18.8-45.8 C178.8,347.9,176.5,336.2,173.6,324.7z" fill="inherit"/><path d="M198.7,186.5c0.2,4.5,5.5,4,8.8,4.1c0.5,0,1,0,1.4,0c13.6,0,26.1-6.4,36.9-14.1c2.3-1.7,4.7-2.4,7.2-3.6 c4.6-3.1-0.1-9.2-4.6-6.1c-5,1.5-9.2,5.2-13.6,8c-5.9,3.4-12.1,6.3-18.8,7.6c-4.5,0.7-9.2,0.9-13.7,0.2 C200.4,182.8,198.7,184.5,198.7,186.5z" fill="inherit"/><path d="M443.9,388.2c-18.9-10.1-41-11.8-61.4-17.6c-4.5-1-8.8-2.6-13.2-3.8c-5-1.1-10.4-2.5-13.9-6.4c2.3-2.8,6.4-3.5,9.7-4.6 c4.5-0.7,8.7,1.6,12.9,3c5.3,1.7,10.9,2.4,16.2,4.3c4.4,1.6,8.8,3.3,13.3,4.5c12.3,3.2,24.8,4.3,37.3,6.2c3.1,0.8,7.3,2,10.5,3 c4.8,0.6,5.2-4.4,4-7.9c-0.7-6.7-3.8-12.5-7.4-18.1c-3.6-6.1-6.5-12.6-10.7-18.4c-2.3-5.2-9.7-1.3-6.6,3.6 c3.4,4.4,5.5,9.6,8.4,14.4c2.9,5.8,7.4,11,8.4,17.5c-7.9-2.8-16.4-2.6-24.6-4c-4-1-8-1.7-12-2.3c-8.2-1.5-15.8-5.1-23.8-7.3 c-5.9-1.2-11.6-2.8-17.2-5c-6.2-2.3-12.8-0.9-18.6,2c-14.3,7-5.6,17.6,5.7,21.1c7.3,1.9,14.4,4.2,21.7,6.1 c7.2,2.1,14.7,2.9,21.8,5.1c12.9,3.1,26.6,5.2,38,12.6c12.9,9.2,20.6,25.5,20.9,41.3c-1.2,8.5-6,16.1-9,24 c-5-6.5-11.4-11.7-17.1-17.4c-5-5.3-10.2-10.4-15.8-15c-7.5-7.1-14.8-15.1-24.4-19.4c-9.8-5.8-32-10.1-31.6,7 c1.6,10.8,11.8,17.6,18.9,24.9c19.2,17.1,48.4,31,51.2,59.6c2.4,28.1-9.1,45.1-17.8,70.2c-19.1-2.5-40.1-3.6-55.5-16.6 c-10.4-8.3-11-18.7-10.9-31c-0.1-3.7-0.4-7.4-0.6-11.1c0-8.4-0.9-18.7-11.3-19.8c-20.5-1.7-15.2,48.8-14.3,62 c-7.6-4.7-12-12-17-19.3c-8-11.5-10.2-26.4-7.8-40c3.2-13.7,13-24.5,18.8-37.1c2.5-6.3,5-12.8,5-19.6c-0.1-6.6-5.1-13.3-12.2-12.1 c-32,12.6-35.3,78.1-30.8,107.5c-12.3-7-25.7-15.6-31-29.3c-3-10.1-3.2-21.2,0.3-31.2c6.3-16.3,17.3-30.2,24.9-45.9 c3.4-7,13.7-28.5-2.1-26c-13.4,5.9-23.6,21.4-31.2,33.5c-5.7,10.3-11.5,20.9-13.5,32.6c-0.7,4.4-1.3,8.8-2,13.2 c-11.8-11.3-19.4-26.3-23.2-42.1c-1-5.7-0.8-11.5-0.7-17.2c0.5-4.8-6.7-5.7-7.4-0.9c-2,20.3,5.8,40.4,17.9,56.5 c3.3,4.1,7,8,10.8,11.6c2,2.4,5.8,4.1,8.1,1.1c3.5-9,2.5-19.3,5.9-28.5c7.7-19.5,18.8-39.6,36.3-52.1c-3.8,17.7-16.2,31.7-24,47.6 c-8,12.6-11.6,27.6-9,42.3c1.1,11,7.9,20,15.9,27.2c4.8,4.9,11,8.2,16.6,12c4.4,2.6,16,9.8,15.6-0.3c-5-29.5-3.9-85,22.7-104 c8.5-1.7,3,14,1.4,18c-5.1,12.7-14.7,23.3-19.1,36.4c-3.8,11.2-2.9,23.5-0.1,34.8c3.4,11.6,10.9,21.9,18.9,30.9 c5.8,6.6,22.8,17.9,19.5,0.3c-1-13.3-3.9-44.3,4.7-54.4c6.6-1.1,5.6,7.7,6,11.9c0.9,8.6,0.5,17.3,1.3,26c2,16,16.1,26.4,29.9,32.2 c13.4,5.1,27.9,6.1,42,8.2c0.3,0,0.6,0,0.8,0c0.2,0,0.5,0,0.8,0c1.8,0,3.5-0.1,4.8-1.4c2.8-3.7,3.3-8.8,5.3-13 c4.3-11.1,9.8-21.8,12.5-33.5c10.1-45.4-8-62.4-42.4-87.7c-9-7.1-18.3-14.8-24.6-24.5c-4.8-13.2,18.1-4,23.1-0.9 c6.9,4.1,12.8,10,18.5,15.7c9.2,7.5,17,16.5,25.8,24.4c2.9,2.8,5.8,5.7,8.2,9c1.3,1.9,2.4,4.2,4.5,5.1c5.8,1.9,6.6-6.1,8.5-9.7 c3.3-8.3,8.2-16.4,8.7-25.4C470.4,417.8,460.5,398.1,443.9,388.2z" fill="inherit"/><path d="M371.4,573.6c-2-0.5-4.1,0.6-4.6,2.6c-3.8,20.6-7.6,41.2-10.8,61.9c-2.8,15.3-3.1,31.1-7.1,46.2 c-21.2,6.3-43.8,4.5-65.7,4.4c-4-0.1-8.1,0-12.1,0.1c-9.7,0.2-19.5,0.4-29-1.8c-8.4-2-17.5-2.3-25.4-5.7 c-9.2-39.6-15.1-79.9-23.1-119.7c-5-25.4-6.7-51.3-11.7-76.8c4.5-0.1,9-1,13.6-0.5c3.8,0.4,7.5,0.9,11.3,0.9c4.9-0.1,4.9-7.4,0-7.5 c-7.6-0.1-15.2-1.9-22.8-0.4c-2.8,0.1-6.1-0.3-8.2,2c-2.2,2.4-1.5,5.9-0.9,8.9c0.9,4.9,1.7,9.8,2.5,14.7c2.3,11.2,2.8,22.7,4.6,34 c2.3,16.8,5.6,33.1,8.8,49.7c6.1,32.3,11.1,64.9,18.7,96.8c3.4,8.4,15.3,7.1,22.7,9.4c9.7,1.9,19.4,4,29.4,3.5 c15-0.2,30,0.1,45,0.2c13.7-0.4,27.8-0.1,41-4.2c9.6-0.6,9.6-9.5,11-17c3.8-31.4,9.1-62.6,14.7-93.7 C373.9,578.7,375.1,574.7,371.4,573.6z" fill="inherit"/></g></svg>